<svg width="13" height="15" viewBox="0 0 13 15" fill="none" xmlns="http://www.w3.org/2000/svg">
    <path d="M3.61111 11.1111C3.80266 11.1111 3.98636 11.035 4.1218 10.8996C4.25724 10.7641 4.33333 10.5804 4.33333 10.3889C4.33688 10.3408 4.33688 10.2925 4.33333 10.2444C4.32543 10.1992 4.31082 10.1554 4.29 10.1144C4.27419 10.0684 4.25233 10.0247 4.225 9.98444L4.13833 9.87611C4.06965 9.81035 3.98865 9.75881 3.9 9.72444C3.76499 9.66087 3.61361 9.64069 3.46667 9.66666L3.33667 9.70999L3.20667 9.77499C3.16883 9.80166 3.13265 9.8306 3.09833 9.86166L3.01167 9.96999C2.98433 10.0103 2.96247 10.054 2.94667 10.1C2.92584 10.1409 2.91124 10.1847 2.90333 10.23C2.89979 10.2781 2.89979 10.3264 2.90333 10.3744C2.90333 10.566 2.97942 10.7497 3.11487 10.8851C3.25031 11.0206 3.43401 11.0967 3.62556 11.0967L3.61111 11.1111ZM9.38889 11.1111C9.58043 11.1111 9.76413 11.035 9.89958 10.8996C10.035 10.7641 10.1111 10.5804 10.1111 10.3889C10.1147 10.3408 10.1147 10.2925 10.1111 10.2444C10.1032 10.1992 10.0886 10.1554 10.0678 10.1144C10.052 10.0684 10.0301 10.0247 10.0028 9.98444L9.91611 9.87611C9.84591 9.81231 9.7653 9.76101 9.67778 9.72444C9.50194 9.6522 9.30472 9.6522 9.12889 9.72444C9.04137 9.76101 8.96076 9.81231 8.89056 9.87611L8.80389 9.98444C8.77656 10.0247 8.7547 10.0684 8.73889 10.1144C8.71807 10.1554 8.70346 10.1992 8.69556 10.2444C8.69201 10.2925 8.69201 10.3408 8.69556 10.3889C8.69635 10.5784 8.77157 10.7599 8.905 10.8944C9.033 11.0254 9.20596 11.1028 9.38889 11.1111ZM7.22222 2.44444H5.77778C5.58623 2.44444 5.40253 2.52053 5.26709 2.65597C5.13165 2.79141 5.05556 2.97511 5.05556 3.16666C5.05556 3.35821 5.13165 3.54191 5.26709 3.67735C5.40253 3.81279 5.58623 3.88888 5.77778 3.88888H7.22222C7.41377 3.88888 7.59747 3.81279 7.73291 3.67735C7.86835 3.54191 7.94444 3.35821 7.94444 3.16666C7.94444 2.97511 7.86835 2.79141 7.73291 2.65597C7.59747 2.52053 7.41377 2.44444 7.22222 2.44444ZM10.8333 0.277771H2.16667C1.59203 0.277771 1.04093 0.506044 0.634602 0.912373C0.228273 1.3187 0 1.8698 0 2.44444V11.1111C0.00125631 11.5581 0.140746 11.9938 0.399344 12.3584C0.657943 12.7231 1.02299 12.9988 1.44444 13.1478V14C1.44444 14.1915 1.52054 14.3752 1.65598 14.5107C1.79142 14.6461 1.97512 14.7222 2.16667 14.7222C2.35821 14.7222 2.54191 14.6461 2.67735 14.5107C2.8128 14.3752 2.88889 14.1915 2.88889 14V13.2778H10.1111V14C10.1111 14.1915 10.1872 14.3752 10.3226 14.5107C10.4581 14.6461 10.6418 14.7222 10.8333 14.7222C11.0249 14.7222 11.2086 14.6461 11.344 14.5107C11.4795 14.3752 11.5556 14.1915 11.5556 14V13.1478C11.977 12.9988 12.3421 12.7231 12.6007 12.3584C12.8593 11.9938 12.9987 11.5581 13 11.1111V2.44444C13 1.8698 12.7717 1.3187 12.3654 0.912373C11.9591 0.506044 11.408 0.277771 10.8333 0.277771ZM11.5556 11.1111C11.5556 11.3027 11.4795 11.4864 11.344 11.6218C11.2086 11.7572 11.0249 11.8333 10.8333 11.8333H2.16667C1.97512 11.8333 1.79142 11.7572 1.65598 11.6218C1.52054 11.4864 1.44444 11.3027 1.44444 11.1111V8.94444H11.5556V11.1111ZM11.5556 7.49999H1.44444V2.44444C1.44444 2.25289 1.52054 2.06919 1.65598 1.93375C1.79142 1.79831 1.97512 1.72222 2.16667 1.72222H10.8333C11.0249 1.72222 11.2086 1.79831 11.344 1.93375C11.4795 2.06919 11.5556 2.25289 11.5556 2.44444V7.49999Z" fill="#2764C0"/>
</svg>
